<svg width="300" height="300" viewBox="0 0 300 300" fill="none" xmlns="http://www.w3.org/2000/svg">
<path d="M164.5 9.52628L264.404 67.2058C273.376 72.3861 278.904 81.9598 278.904 92.3205V207.679C278.904 218.04 273.376 227.614 264.404 232.794L164.5 290.474C155.527 295.654 144.473 295.654 135.5 290.474L35.5962 232.794C26.6236 227.614 21.0962 218.04 21.0962 207.679V92.3205C21.0962 81.9598 26.6236 72.3861 35.5962 67.2058L135.5 9.52628C144.473 4.34593 155.527 4.34593 164.5 9.52628Z" fill="white" stroke="#0077FF" stroke-width="2"/>
<path d="M140 31.8604C146.188 28.2878 153.812 28.2878 160 31.8604L247.312 82.2699C253.5 85.8426 257.312 92.4451 257.312 99.5904V200.409C257.312 207.555 253.5 214.157 247.312 217.73L160 268.139C153.812 271.712 146.188 271.712 140 268.139L52.6882 217.73C46.5001 214.157 42.6882 207.555 42.6882 200.409V99.5904C42.6882 92.4451 46.5001 85.8426 52.6882 82.2699L140 31.8604Z" fill="#0077FF" fill-opacity="0.15"/>
<path d="M140.455 114.546H198.261M140.455 114.546C140.455 116.904 139.518 119.166 137.85 120.834C136.182 122.502 133.92 123.439 131.561 123.439C129.203 123.439 126.941 122.502 125.273 120.834C123.605 119.166 122.668 116.904 122.668 114.546M140.455 114.546C140.455 112.187 139.518 109.925 137.85 108.257C136.182 106.589 133.92 105.652 131.561 105.652C129.203 105.652 126.941 106.589 125.273 108.257C123.605 109.925 122.668 112.187 122.668 114.546M122.668 114.546H100.435M140.455 185.692H198.261M140.455 185.692C140.455 188.05 139.518 190.312 137.85 191.98C136.182 193.648 133.92 194.585 131.561 194.585C129.203 194.585 126.941 193.648 125.273 191.98C123.605 190.312 122.668 188.05 122.668 185.692M140.455 185.692C140.455 183.333 139.518 181.071 137.85 179.403C136.182 177.735 133.92 176.798 131.561 176.798C129.203 176.798 126.941 177.735 125.273 179.403C123.605 181.071 122.668 183.333 122.668 185.692M122.668 185.692H100.435M176.028 150.119H198.261M176.028 150.119C176.028 152.477 175.091 154.739 173.423 156.407C171.755 158.075 169.493 159.012 167.134 159.012C164.776 159.012 162.514 158.075 160.846 156.407C159.178 154.739 158.241 152.477 158.241 150.119M176.028 150.119C176.028 147.76 175.091 145.498 173.423 143.83C171.755 142.162 169.493 141.225 167.134 141.225C164.776 141.225 162.514 142.162 160.846 143.83C159.178 145.498 158.241 147.76 158.241 150.119M158.241 150.119H100.435" stroke="#0077FF" stroke-width="2" stroke-linecap="round" stroke-linejoin="round"/>
</svg>
